<svg xmlns="http://www.w3.org/2000/svg" enable-background="new 0 0 47.5 47.5" viewBox="0 0 47.5 47.5"><defs><clipPath id="a" clipPathUnits="userSpaceOnUse"><path d="M 0,38 38,38 38,0 0,0 0,38 Z"/></clipPath><clipPath id="b" clipPathUnits="userSpaceOnUse"><path d="M 1,19 C 1,9.059 9.059,1 19,1 l 0,0 c 9.94,0 18,8.059 18,18 l 0,0 c 0,9.941 -8.059,18 -18,18 l 0,0 C 9.059,37 1,28.941 1,19"/></clipPath></defs><g transform="matrix(1.25 0 0 -1.25 0 47.5)"><g clip-path="url(#a)"><path fill="#77b255" d="m 0,0 c -9.941,0 -18,8.059 -18,18 0,9.941 8.059,18 18,18 C 9.941,36 18,27.941 18,18 18,8.059 9.94,0 0,0" transform="translate(19 1)"/></g><g clip-path="url(#b)"><path fill="#a6d388" d="m 0,0 c 4.352,0 9,-3.678 9,-14 0,-10.322 -4.648,-14 -9,-14 -4.352,0 -9,3.678 -9,14 0,10.322 4.648,14 9,14" transform="translate(35 33)"/><path fill="#fff" d="M 0,0 C 4.318,0 7,4.598 7,12 7,19.402 4.318,24 0,24 -4.318,24 -7,19.402 -7,12 -7,4.598 -4.318,0 0,0 M 0,26 C 4.352,26 9,22.322 9,12 9,1.678 4.352,-2 0,-2 c -4.352,0 -9,3.678 -9,14 0,10.322 4.648,14 9,14" transform="translate(35 7)"/><path fill="#a6d388" d="m 0,0 c 4.351,0 9,-3.678 9,-14 0,-10.322 -4.649,-14 -9,-14 -4.351,0 -9,3.678 -9,14 0,10.322 4.649,14 9,14" transform="translate(3 33)"/><path fill="#fff" d="M 0,0 C 4.317,0 7,4.598 7,12 7,19.402 4.317,24 0,24 -4.317,24 -7,19.402 -7,12 -7,4.599 -4.317,0 0,0 M 0,26 C 4.351,26 9,22.322 9,12 9,1.678 4.351,-2 0,-2 c -4.351,0 -9,3.678 -9,14 0,10.322 4.649,14 9,14" transform="translate(3 7)"/></g></g></svg>